<svg width="1651" height="447" viewBox="0 0 1651 447" fill="none" xmlns="http://www.w3.org/2000/svg">
<path d="M615.129 204.55C615.129 231.85 606.496 252.5 589.229 266.5C572.196 280.267 548.863 287.15 519.229 287.15H492.629V368H435.229V125.45H511.529C545.129 125.45 570.796 132.1 588.529 145.4C606.263 158.467 615.129 178.183 615.129 204.55ZM556.329 204.55C556.329 179.117 541.746 166.4 512.579 166.4H492.629V245.85H515.379C528.446 245.85 538.479 242.467 545.479 235.7C552.713 228.933 556.329 218.55 556.329 204.55ZM761.643 368C753.243 392.967 740.759 411.75 724.193 424.35C707.626 437.183 685.459 444.417 657.693 446.05L651.393 406.85C669.126 404.517 682.193 400.55 690.593 394.95C699.226 389.35 706.109 380.367 711.243 368H691.993L633.193 182.15H691.643L727.693 332.65L766.893 182.15H823.593L761.643 368ZM913.056 368H857.756V108.3L913.056 102.35V368ZM972.906 264.4L1039.06 368H976.056L915.156 266.15L976.406 182.15H1034.16L972.906 264.4ZM1115.57 291.35C1119.07 319.583 1134 333.7 1160.37 333.7C1176.24 333.7 1192.1 328.567 1207.97 318.3L1230.02 348.4C1220.92 356.333 1210.07 362.633 1197.47 367.3C1184.87 371.733 1170.99 373.95 1155.82 373.95C1135.05 373.95 1117.44 369.867 1102.97 361.7C1088.5 353.3 1077.54 341.75 1070.07 327.05C1062.84 312.117 1059.22 294.85 1059.22 275.25C1059.22 256.583 1062.72 239.783 1069.72 224.85C1076.95 209.683 1087.34 197.783 1100.87 189.15C1114.64 180.283 1130.97 175.85 1149.87 175.85C1167.6 175.85 1183 179.7 1196.07 187.4C1209.14 194.867 1219.17 205.833 1226.17 220.3C1233.4 234.533 1237.02 251.567 1237.02 271.4C1237.02 279.1 1236.67 285.75 1235.97 291.35H1115.57ZM1149.87 212.95C1139.84 212.95 1131.79 216.683 1125.72 224.15C1119.65 231.383 1116.04 242.583 1114.87 257.75H1183.12C1182.65 227.883 1171.57 212.95 1149.87 212.95ZM1374.43 309.55C1374.43 323.317 1382.37 330.2 1398.23 330.2C1406.87 330.2 1415.73 328.333 1424.83 324.6L1437.78 361.7C1422.85 369.867 1405 373.95 1384.23 373.95C1362.53 373.95 1346.2 367.767 1335.23 355.4C1324.5 342.8 1319.13 325.183 1319.13 302.55V146.1H1264.53V108.3H1374.43V309.55ZM1584.3 309.55C1584.3 323.317 1592.23 330.2 1608.1 330.2C1616.73 330.2 1625.6 328.333 1634.7 324.6L1647.65 361.7C1632.71 369.867 1614.86 373.95 1594.1 373.95C1572.4 373.95 1556.06 367.767 1545.1 355.4C1534.36 342.8 1529 325.183 1529 302.55V146.1H1474.4V108.3H1584.3V309.55Z" fill="#316A99"/>
<path d="M0 361.412L120.471 180.706L0 0H90.3529L331.294 361.412H240.941L165.647 248.471L90.3529 361.412" fill="#316A99"/>
<path d="M304.976 277L265.01 216.765H405.569V277M244.921 186.647L204.774 126.412H405.569V186.647" fill="#4685B7"/>
<mask id="mask0_11_4" style="mask-type:alpha" maskUnits="userSpaceOnUse" x="125" y="11" width="1526" height="81">
<rect x="125.529" y="11" width="1525" height="81" fill="#D9D9D9"/>
</mask>
<g mask="url(#mask0_11_4)">
<path d="M185.133 92.4L143.853 32H1683.64V92.4M123.104 1.8L81.6367 -58.6H289.034V1.8" fill="#4685B7"/>
</g>
</svg>
